<?xml version="1.0" standalone="no"?>
<svg viewBox="0 0 200 200" xmlns="http://www.w3.org/2000/svg">
  <path fill="#2C0139" d="M27.3,-51C38.2,-40.9,51.8,-39.3,62.3,-32.3C72.8,-25.2,80.2,-12.6,75.6,-2.7C71,7.3,54.3,14.5,47.5,27.9C40.6,41.3,43.6,60.9,37.3,68.6C31,76.2,15.5,71.9,3.2,66.4C-9.1,60.8,-18.2,54,-27.5,48.1C-36.8,42.2,-46.5,37.3,-49.3,29.4C-52.1,21.6,-48.2,10.8,-48.9,-0.4C-49.7,-11.7,-55.2,-23.4,-52.5,-31.5C-49.8,-39.5,-38.9,-44,-28.8,-54.5C-18.7,-65,-9.3,-81.5,-0.6,-80.5C8.2,-79.6,16.4,-61,27.3,-51Z" transform="translate(100 100)" />
</svg>
