<?xml version="1.0" standalone="no"?><svg xmlns="http://www.w3.org/2000/svg" viewBox="0 0 1440 320"><path fill="#48d597" fill-opacity="1" d="M0,288L17.1,256C34.3,224,69,160,103,149.3C137.1,139,171,181,206,208C240,235,274,245,309,224C342.9,203,377,149,411,117.3C445.7,85,480,75,514,96C548.6,117,583,171,617,181.3C651.4,192,686,160,720,138.7C754.3,117,789,107,823,85.3C857.1,64,891,32,926,21.3C960,11,994,21,1029,37.3C1062.9,53,1097,75,1131,117.3C1165.7,160,1200,224,1234,240C1268.6,256,1303,224,1337,197.3C1371.4,171,1406,149,1423,138.7L1440,128L1440,0L1422.9,0C1405.7,0,1371,0,1337,0C1302.9,0,1269,0,1234,0C1200,0,1166,0,1131,0C1097.1,0,1063,0,1029,0C994.3,0,960,0,926,0C891.4,0,857,0,823,0C788.6,0,754,0,720,0C685.7,0,651,0,617,0C582.9,0,549,0,514,0C480,0,446,0,411,0C377.1,0,343,0,309,0C274.3,0,240,0,206,0C171.4,0,137,0,103,0C68.6,0,34,0,17,0L0,0Z"></path></svg>